<mxfile host="app.diagrams.net" modified="2021-11-11T03:27:39.863Z" agent="5.0 (Windows NT 10.0; Win64; x64) AppleWebKit/537.36 (KHTML, like Gecko) Chrome/95.0.4638.69 Safari/537.36" etag="FO53QyqZmI56UpisHRHe" version="15.7.3" type="github">
  <diagram id="wO-Hv5fYxEqQqqzBDX1r" name="Page-1">
    <mxGraphModel dx="1422" dy="697" grid="1" gridSize="10" guides="1" tooltips="1" connect="1" arrows="1" fold="1" page="1" pageScale="1" pageWidth="850" pageHeight="1100" math="0" shadow="0">
      <root>
        <mxCell id="0" />
        <mxCell id="1" parent="0" />
        <mxCell id="COrSosFsCR_IvFb1Dk6T-1" value="Department" style="swimlane;fontStyle=0;childLayout=stackLayout;horizontal=1;startSize=30;horizontalStack=0;resizeParent=1;resizeParentMax=0;resizeLast=0;collapsible=1;marginBottom=0;" vertex="1" parent="1">
          <mxGeometry x="75" y="120" width="140" height="120" as="geometry" />
        </mxCell>
        <mxCell id="COrSosFsCR_IvFb1Dk6T-2" value="department_id {PK}" style="text;strokeColor=none;fillColor=none;align=left;verticalAlign=middle;spacingLeft=4;spacingRight=4;overflow=hidden;points=[[0,0.5],[1,0.5]];portConstraint=eastwest;rotatable=0;" vertex="1" parent="COrSosFsCR_IvFb1Dk6T-1">
          <mxGeometry y="30" width="140" height="30" as="geometry" />
        </mxCell>
        <mxCell id="COrSosFsCR_IvFb1Dk6T-3" value="department_name" style="text;strokeColor=none;fillColor=none;align=left;verticalAlign=middle;spacingLeft=4;spacingRight=4;overflow=hidden;points=[[0,0.5],[1,0.5]];portConstraint=eastwest;rotatable=0;" vertex="1" parent="COrSosFsCR_IvFb1Dk6T-1">
          <mxGeometry y="60" width="140" height="30" as="geometry" />
        </mxCell>
        <mxCell id="COrSosFsCR_IvFb1Dk6T-52" value="location_id {FK}" style="text;strokeColor=none;fillColor=none;align=left;verticalAlign=middle;spacingLeft=4;spacingRight=4;overflow=hidden;points=[[0,0.5],[1,0.5]];portConstraint=eastwest;rotatable=0;" vertex="1" parent="COrSosFsCR_IvFb1Dk6T-1">
          <mxGeometry y="90" width="140" height="30" as="geometry" />
        </mxCell>
        <mxCell id="COrSosFsCR_IvFb1Dk6T-5" value="Employee" style="swimlane;fontStyle=0;childLayout=stackLayout;horizontal=1;startSize=30;horizontalStack=0;resizeParent=1;resizeParentMax=0;resizeLast=0;collapsible=1;marginBottom=0;" vertex="1" parent="1">
          <mxGeometry x="461" y="121" width="140" height="240" as="geometry" />
        </mxCell>
        <mxCell id="COrSosFsCR_IvFb1Dk6T-6" value="employee_id {PK}" style="text;strokeColor=none;fillColor=none;align=left;verticalAlign=middle;spacingLeft=4;spacingRight=4;overflow=hidden;points=[[0,0.5],[1,0.5]];portConstraint=eastwest;rotatable=0;" vertex="1" parent="COrSosFsCR_IvFb1Dk6T-5">
          <mxGeometry y="30" width="140" height="30" as="geometry" />
        </mxCell>
        <mxCell id="COrSosFsCR_IvFb1Dk6T-7" value="first_name" style="text;strokeColor=none;fillColor=none;align=left;verticalAlign=middle;spacingLeft=4;spacingRight=4;overflow=hidden;points=[[0,0.5],[1,0.5]];portConstraint=eastwest;rotatable=0;" vertex="1" parent="COrSosFsCR_IvFb1Dk6T-5">
          <mxGeometry y="60" width="140" height="30" as="geometry" />
        </mxCell>
        <mxCell id="COrSosFsCR_IvFb1Dk6T-8" value="last_name" style="text;strokeColor=none;fillColor=none;align=left;verticalAlign=middle;spacingLeft=4;spacingRight=4;overflow=hidden;points=[[0,0.5],[1,0.5]];portConstraint=eastwest;rotatable=0;" vertex="1" parent="COrSosFsCR_IvFb1Dk6T-5">
          <mxGeometry y="90" width="140" height="30" as="geometry" />
        </mxCell>
        <mxCell id="COrSosFsCR_IvFb1Dk6T-20" value="email" style="text;strokeColor=none;fillColor=none;align=left;verticalAlign=middle;spacingLeft=4;spacingRight=4;overflow=hidden;points=[[0,0.5],[1,0.5]];portConstraint=eastwest;rotatable=0;" vertex="1" parent="COrSosFsCR_IvFb1Dk6T-5">
          <mxGeometry y="120" width="140" height="30" as="geometry" />
        </mxCell>
        <mxCell id="COrSosFsCR_IvFb1Dk6T-21" value="department_id {FK}" style="text;strokeColor=none;fillColor=none;align=left;verticalAlign=middle;spacingLeft=4;spacingRight=4;overflow=hidden;points=[[0,0.5],[1,0.5]];portConstraint=eastwest;rotatable=0;" vertex="1" parent="COrSosFsCR_IvFb1Dk6T-5">
          <mxGeometry y="150" width="140" height="30" as="geometry" />
        </mxCell>
        <mxCell id="COrSosFsCR_IvFb1Dk6T-38" value="managerId_id {FK}" style="text;strokeColor=none;fillColor=none;align=left;verticalAlign=middle;spacingLeft=4;spacingRight=4;overflow=hidden;points=[[0,0.5],[1,0.5]];portConstraint=eastwest;rotatable=0;" vertex="1" parent="COrSosFsCR_IvFb1Dk6T-5">
          <mxGeometry y="180" width="140" height="30" as="geometry" />
        </mxCell>
        <mxCell id="COrSosFsCR_IvFb1Dk6T-63" value="manager_id {FK}" style="text;strokeColor=none;fillColor=none;align=left;verticalAlign=middle;spacingLeft=4;spacingRight=4;overflow=hidden;points=[[0,0.5],[1,0.5]];portConstraint=eastwest;rotatable=0;" vertex="1" parent="COrSosFsCR_IvFb1Dk6T-5">
          <mxGeometry y="210" width="140" height="30" as="geometry" />
        </mxCell>
        <mxCell id="COrSosFsCR_IvFb1Dk6T-66" style="edgeStyle=orthogonalEdgeStyle;rounded=0;orthogonalLoop=1;jettySize=auto;html=1;entryX=1.007;entryY=0.2;entryDx=0;entryDy=0;entryPerimeter=0;endArrow=none;endFill=0;" edge="1" parent="COrSosFsCR_IvFb1Dk6T-5" source="COrSosFsCR_IvFb1Dk6T-5" target="COrSosFsCR_IvFb1Dk6T-6">
          <mxGeometry relative="1" as="geometry">
            <Array as="points">
              <mxPoint x="70" y="-51" />
              <mxPoint x="219" y="-51" />
              <mxPoint x="219" y="36" />
            </Array>
          </mxGeometry>
        </mxCell>
        <mxCell id="COrSosFsCR_IvFb1Dk6T-10" style="edgeStyle=orthogonalEdgeStyle;rounded=0;orthogonalLoop=1;jettySize=auto;html=1;endArrow=none;endFill=0;" edge="1" parent="1" target="COrSosFsCR_IvFb1Dk6T-6">
          <mxGeometry relative="1" as="geometry">
            <mxPoint x="215" y="166" as="sourcePoint" />
            <mxPoint x="385" y="166" as="targetPoint" />
          </mxGeometry>
        </mxCell>
        <mxCell id="COrSosFsCR_IvFb1Dk6T-11" value="employs" style="text;html=1;strokeColor=none;fillColor=none;align=center;verticalAlign=middle;whiteSpace=wrap;rounded=0;" vertex="1" parent="1">
          <mxGeometry x="331" y="136" width="60" height="30" as="geometry" />
        </mxCell>
        <mxCell id="COrSosFsCR_IvFb1Dk6T-12" value="" style="triangle;whiteSpace=wrap;html=1;fillColor=#000000;" vertex="1" parent="1">
          <mxGeometry x="391" y="141" width="20" height="20" as="geometry" />
        </mxCell>
        <mxCell id="COrSosFsCR_IvFb1Dk6T-13" value="0..*" style="text;html=1;strokeColor=none;fillColor=none;align=center;verticalAlign=middle;whiteSpace=wrap;rounded=0;" vertex="1" parent="1">
          <mxGeometry x="411" y="166" width="60" height="30" as="geometry" />
        </mxCell>
        <mxCell id="COrSosFsCR_IvFb1Dk6T-18" value="0..1" style="text;html=1;strokeColor=none;fillColor=none;align=center;verticalAlign=middle;whiteSpace=wrap;rounded=0;" vertex="1" parent="1">
          <mxGeometry x="199" y="161" width="60" height="30" as="geometry" />
        </mxCell>
        <mxCell id="COrSosFsCR_IvFb1Dk6T-47" style="edgeStyle=orthogonalEdgeStyle;rounded=0;orthogonalLoop=1;jettySize=auto;html=1;exitX=0.5;exitY=0;exitDx=0;exitDy=0;endArrow=none;endFill=0;" edge="1" parent="1" source="COrSosFsCR_IvFb1Dk6T-40" target="COrSosFsCR_IvFb1Dk6T-1">
          <mxGeometry relative="1" as="geometry" />
        </mxCell>
        <mxCell id="COrSosFsCR_IvFb1Dk6T-40" value="Location" style="swimlane;fontStyle=0;childLayout=stackLayout;horizontal=1;startSize=30;horizontalStack=0;resizeParent=1;resizeParentMax=0;resizeLast=0;collapsible=1;marginBottom=0;" vertex="1" parent="1">
          <mxGeometry x="75" y="430" width="140" height="120" as="geometry" />
        </mxCell>
        <mxCell id="COrSosFsCR_IvFb1Dk6T-41" value="location_id {PK}" style="text;strokeColor=none;fillColor=none;align=left;verticalAlign=middle;spacingLeft=4;spacingRight=4;overflow=hidden;points=[[0,0.5],[1,0.5]];portConstraint=eastwest;rotatable=0;" vertex="1" parent="COrSosFsCR_IvFb1Dk6T-40">
          <mxGeometry y="30" width="140" height="30" as="geometry" />
        </mxCell>
        <mxCell id="COrSosFsCR_IvFb1Dk6T-42" value="street_address" style="text;strokeColor=none;fillColor=none;align=left;verticalAlign=middle;spacingLeft=4;spacingRight=4;overflow=hidden;points=[[0,0.5],[1,0.5]];portConstraint=eastwest;rotatable=0;" vertex="1" parent="COrSosFsCR_IvFb1Dk6T-40">
          <mxGeometry y="60" width="140" height="30" as="geometry" />
        </mxCell>
        <mxCell id="COrSosFsCR_IvFb1Dk6T-43" value="post_code" style="text;strokeColor=none;fillColor=none;align=left;verticalAlign=middle;spacingLeft=4;spacingRight=4;overflow=hidden;points=[[0,0.5],[1,0.5]];portConstraint=eastwest;rotatable=0;" vertex="1" parent="COrSosFsCR_IvFb1Dk6T-40">
          <mxGeometry y="90" width="140" height="30" as="geometry" />
        </mxCell>
        <mxCell id="COrSosFsCR_IvFb1Dk6T-48" value="is in" style="text;html=1;strokeColor=none;fillColor=none;align=center;verticalAlign=middle;whiteSpace=wrap;rounded=0;" vertex="1" parent="1">
          <mxGeometry x="145" y="300" width="60" height="30" as="geometry" />
        </mxCell>
        <mxCell id="COrSosFsCR_IvFb1Dk6T-49" value="" style="triangle;whiteSpace=wrap;html=1;fillColor=#000000;direction=south;" vertex="1" parent="1">
          <mxGeometry x="164" y="329" width="20" height="20" as="geometry" />
        </mxCell>
        <mxCell id="COrSosFsCR_IvFb1Dk6T-50" value="0..*" style="text;html=1;strokeColor=none;fillColor=none;align=center;verticalAlign=middle;whiteSpace=wrap;rounded=0;" vertex="1" parent="1">
          <mxGeometry x="95" y="240" width="60" height="30" as="geometry" />
        </mxCell>
        <mxCell id="COrSosFsCR_IvFb1Dk6T-51" value="1..1" style="text;html=1;strokeColor=none;fillColor=none;align=center;verticalAlign=middle;whiteSpace=wrap;rounded=0;" vertex="1" parent="1">
          <mxGeometry x="95" y="400" width="60" height="30" as="geometry" />
        </mxCell>
        <mxCell id="COrSosFsCR_IvFb1Dk6T-57" style="edgeStyle=orthogonalEdgeStyle;rounded=0;orthogonalLoop=1;jettySize=auto;html=1;endArrow=none;endFill=0;" edge="1" parent="1" source="COrSosFsCR_IvFb1Dk6T-53">
          <mxGeometry relative="1" as="geometry">
            <mxPoint x="531" y="361" as="targetPoint" />
          </mxGeometry>
        </mxCell>
        <mxCell id="COrSosFsCR_IvFb1Dk6T-53" value="Job" style="swimlane;fontStyle=0;childLayout=stackLayout;horizontal=1;startSize=30;horizontalStack=0;resizeParent=1;resizeParentMax=0;resizeLast=0;collapsible=1;marginBottom=0;" vertex="1" parent="1">
          <mxGeometry x="461" y="461" width="140" height="120" as="geometry" />
        </mxCell>
        <mxCell id="COrSosFsCR_IvFb1Dk6T-54" value="job_id {PK}" style="text;strokeColor=none;fillColor=none;align=left;verticalAlign=middle;spacingLeft=4;spacingRight=4;overflow=hidden;points=[[0,0.5],[1,0.5]];portConstraint=eastwest;rotatable=0;" vertex="1" parent="COrSosFsCR_IvFb1Dk6T-53">
          <mxGeometry y="30" width="140" height="30" as="geometry" />
        </mxCell>
        <mxCell id="COrSosFsCR_IvFb1Dk6T-55" value="job_title" style="text;strokeColor=none;fillColor=none;align=left;verticalAlign=middle;spacingLeft=4;spacingRight=4;overflow=hidden;points=[[0,0.5],[1,0.5]];portConstraint=eastwest;rotatable=0;" vertex="1" parent="COrSosFsCR_IvFb1Dk6T-53">
          <mxGeometry y="60" width="140" height="30" as="geometry" />
        </mxCell>
        <mxCell id="COrSosFsCR_IvFb1Dk6T-62" value="manager_id {FK}" style="text;strokeColor=none;fillColor=none;align=left;verticalAlign=middle;spacingLeft=4;spacingRight=4;overflow=hidden;points=[[0,0.5],[1,0.5]];portConstraint=eastwest;rotatable=0;" vertex="1" parent="COrSosFsCR_IvFb1Dk6T-53">
          <mxGeometry y="90" width="140" height="30" as="geometry" />
        </mxCell>
        <mxCell id="COrSosFsCR_IvFb1Dk6T-58" value="has" style="text;html=1;strokeColor=none;fillColor=none;align=center;verticalAlign=middle;whiteSpace=wrap;rounded=0;" vertex="1" parent="1">
          <mxGeometry x="531" y="380" width="60" height="30" as="geometry" />
        </mxCell>
        <mxCell id="COrSosFsCR_IvFb1Dk6T-59" value="" style="triangle;whiteSpace=wrap;html=1;fillColor=#000000;direction=south;" vertex="1" parent="1">
          <mxGeometry x="550" y="411" width="20" height="18" as="geometry" />
        </mxCell>
        <mxCell id="COrSosFsCR_IvFb1Dk6T-60" value="0..*" style="text;html=1;strokeColor=none;fillColor=none;align=center;verticalAlign=middle;whiteSpace=wrap;rounded=0;" vertex="1" parent="1">
          <mxGeometry x="481" y="360" width="60" height="30" as="geometry" />
        </mxCell>
        <mxCell id="COrSosFsCR_IvFb1Dk6T-61" value="0..1" style="text;html=1;strokeColor=none;fillColor=none;align=center;verticalAlign=middle;whiteSpace=wrap;rounded=0;" vertex="1" parent="1">
          <mxGeometry x="481" y="431" width="60" height="30" as="geometry" />
        </mxCell>
        <mxCell id="COrSosFsCR_IvFb1Dk6T-67" value="manages" style="text;html=1;strokeColor=none;fillColor=none;align=center;verticalAlign=middle;whiteSpace=wrap;rounded=0;" vertex="1" parent="1">
          <mxGeometry x="570" y="40" width="60" height="30" as="geometry" />
        </mxCell>
        <mxCell id="COrSosFsCR_IvFb1Dk6T-68" value="" style="triangle;whiteSpace=wrap;html=1;fillColor=#000000;" vertex="1" parent="1">
          <mxGeometry x="630" y="45" width="20" height="20" as="geometry" />
        </mxCell>
        <mxCell id="COrSosFsCR_IvFb1Dk6T-69" value="0..1" style="text;html=1;strokeColor=none;fillColor=none;align=center;verticalAlign=middle;whiteSpace=wrap;rounded=0;" vertex="1" parent="1">
          <mxGeometry x="486" y="90" width="60" height="30" as="geometry" />
        </mxCell>
        <mxCell id="COrSosFsCR_IvFb1Dk6T-70" value="0..*" style="text;html=1;strokeColor=none;fillColor=none;align=center;verticalAlign=middle;whiteSpace=wrap;rounded=0;" vertex="1" parent="1">
          <mxGeometry x="593" y="155" width="60" height="30" as="geometry" />
        </mxCell>
      </root>
    </mxGraphModel>
  </diagram>
</mxfile>
